<svg xmlns="http://www.w3.org/2000/svg" height="40px" viewBox="0 -960 960 960" width="40px" fill="#666666"><path d="M186.67-80q-27 0-46.84-19.83Q120-119.67 120-146.67v-600q0-27 19.83-46.83 19.84-19.83 46.84-19.83h56.66V-880h70v66.67h333.34V-880h70v66.67h56.66q27 0 46.84 19.83Q840-773.67 840-746.67v600q0 27-19.83 46.84Q800.33-80 773.33-80H186.67Zm0-66.67h586.66v-420H186.67v420Zm0-486.66h586.66v-113.34H186.67v113.34Zm0 0v-113.34 113.34ZM480-400q-17 0-28.5-11.5T440-440q0-17 11.5-28.5T480-480q17 0 28.5 11.5T520-440q0 17-11.5 28.5T480-400Zm-188.5-11.5Q280-423 280-440t11.5-28.5Q303-480 320-480t28.5 11.5Q360-457 360-440t-11.5 28.5Q337-400 320-400t-28.5-11.5ZM640-400q-17 0-28.5-11.5T600-440q0-17 11.5-28.5T640-480q17 0 28.5 11.5T680-440q0 17-11.5 28.5T640-400ZM480-240q-17 0-28.5-11.5T440-280q0-17 11.5-28.5T480-320q17 0 28.5 11.5T520-280q0 17-11.5 28.5T480-240Zm-188.5-11.5Q280-263 280-280t11.5-28.5Q303-320 320-320t28.5 11.5Q360-297 360-280t-11.5 28.5Q337-240 320-240t-28.5-11.5ZM640-240q-17 0-28.5-11.5T600-280q0-17 11.5-28.5T640-320q17 0 28.5 11.5T680-280q0 17-11.5 28.5T640-240Z"/></svg>